<svg width="276" height="277" viewBox="0 0 276 277" fill="none" xmlns="http://www.w3.org/2000/svg">
<rect width="276" height="276.003" transform="translate(0 0.606445)" fill="#14343B"/>
<g filter="url(#filter0_g_4570_38000)">
<path d="M82.9474 176.71C84.1167 176.515 85.2225 177.305 85.4175 178.475C88.2542 195.488 96.4058 206.644 103.463 219.328C105.403 222.815 106.673 227.478 107.941 233.224C109.252 239.17 110.509 246.014 112.505 254.797C112.768 255.953 112.044 257.103 110.888 257.366C109.732 257.628 108.581 256.904 108.319 255.748C106.362 247.142 104.977 239.717 103.749 234.15C102.516 228.564 101.384 224.548 99.8602 221.689L99.7116 221.416C92.9165 209.203 84.1774 197.141 81.1828 179.18C80.988 178.011 81.778 176.905 82.9474 176.71Z" fill="#C6D5D1"/>
</g>
<g filter="url(#filter1_g_4570_38000)">
<path d="M175.472 91.4654C203.66 91.1645 234.156 95.0614 237.05 95.7306V95.7289C237.05 95.7289 241.916 96.7648 240.918 99.0289C239.746 101.684 200.802 175.777 198.619 178.401C184.315 180.333 136.419 183.038 59.2595 178.401C61.4428 176.214 108.546 92.7841 110.73 90.5973C112.913 88.4104 116.516 88.731 121.32 89.1684C123.674 89.3838 147.081 91.768 175.472 91.4654Z" fill="#14343B"/>
</g>
<g filter="url(#filter2_g_4570_38000)">
<path d="M121.514 87.0303C119.17 86.8168 116.868 86.6027 114.875 86.7584C112.832 86.9179 110.805 87.4831 109.211 89.08C108.984 89.3073 108.767 89.616 108.63 89.8155C108.454 90.0692 108.244 90.3914 108.005 90.7672C107.525 91.5214 106.895 92.5484 106.141 93.801C104.632 96.3092 102.598 99.7668 100.218 103.85C96.648 109.977 92.2885 117.532 87.7331 125.441L78.5355 141.415C73.9813 149.322 69.6261 156.868 66.061 162.986C63.6836 167.065 61.6622 170.501 60.169 172.983C59.4215 174.225 58.8131 175.217 58.362 175.926C58.1355 176.282 57.9573 176.553 57.8259 176.744C57.7415 176.866 57.6973 176.924 57.6857 176.94L57.7402 176.884C57.1436 177.482 56.9529 178.374 57.2527 179.163C57.5526 179.952 58.2875 180.493 59.1304 180.544C136.356 185.185 184.408 182.486 198.906 180.528C199.439 180.456 199.925 180.187 200.269 179.774C200.541 179.447 200.917 178.829 201.29 178.197C201.707 177.489 202.248 176.54 202.889 175.394C204.172 173.098 205.883 169.967 207.873 166.286C211.853 158.921 216.966 149.324 222.045 139.731C232.165 120.614 242.254 101.317 242.881 99.8955L242.882 99.8943C243.491 98.5117 243.16 97.2013 242.443 96.2585C241.83 95.4509 240.964 94.9298 240.313 94.6066C239.619 94.2622 238.917 94.0215 238.413 93.8699C238.155 93.7924 237.936 93.7346 237.778 93.695C237.698 93.6752 237.633 93.6598 237.586 93.6489C237.562 93.6434 237.543 93.639 237.528 93.6357C237.52 93.634 237.514 93.6326 237.509 93.6315C237.506 93.6309 237.504 93.6301 237.502 93.6297C237.501 93.6295 237.5 93.6292 237.5 93.6291H237.498C237.498 93.6291 237.499 93.6293 237.498 93.6309H237.497V93.6291C237.464 93.622 237.43 93.6154 237.397 93.6099C235.481 93.2073 227.124 92.0872 215.936 91.0955C204.386 90.0716 189.639 89.1669 175.449 89.3183C147.177 89.6196 123.865 87.2453 121.515 87.0303H121.514ZM115.209 91.0386C116.764 90.9172 118.666 91.0812 121.124 91.3051L121.124 91.3057C123.482 91.5215 146.985 93.9155 175.495 93.6117C189.493 93.4623 204.088 94.3554 215.557 95.3721C227.095 96.3949 235.29 97.5268 236.566 97.8218C236.59 97.8273 236.614 97.831 236.638 97.8356C236.661 97.8411 236.695 97.8496 236.737 97.8602C236.841 97.8861 236.994 97.9268 237.177 97.9818C237.554 98.0951 238.006 98.2545 238.403 98.4519C238.527 98.5134 238.635 98.574 238.727 98.631C237.099 101.903 227.771 119.737 218.25 137.722C213.174 147.311 208.068 156.896 204.096 164.245C202.109 167.92 200.41 171.029 199.142 173.298C198.507 174.434 197.985 175.349 197.592 176.015C197.509 176.156 197.433 176.283 197.363 176.398C182.382 178.262 136.347 180.708 63.0722 176.475C63.3129 176.08 63.5728 175.654 63.8478 175.197C65.357 172.688 67.3906 169.231 69.7703 165.147C73.3407 159.02 77.7007 151.466 82.2562 143.557L91.4538 127.583C96.008 119.676 100.363 112.13 103.928 106.012C106.306 101.933 108.327 98.4962 109.82 96.0148C110.568 94.7725 111.176 93.7807 111.627 93.0715C111.854 92.7156 112.031 92.4442 112.163 92.2539C112.232 92.1541 112.274 92.0974 112.293 92.0712C112.881 91.5064 113.741 91.1532 115.209 91.0386Z" fill="white"/>
</g>
<g filter="url(#filter3_g_4570_38000)">
<path d="M199.882 58.2453C198.394 56.0348 168.328 54.7571 140.543 53.9069C105.673 52.8393 63.8643 53.4905 62.5418 53.5585C60.1641 53.6795 57.6684 53.9315 57.6557 58.5562C57.6415 63.6393 59.0923 157.909 59.4127 158.899C59.7348 159.889 194.322 166.224 195.849 166.251C197.375 166.279 198.662 166.511 198.754 164.149C198.903 160.328 201.885 132.739 201.144 106.73C200.451 82.4268 201.195 60.1964 199.882 58.2453Z" fill="#C0AB8D"/>
</g>
<g filter="url(#filter4_g_4570_38000)">
<path d="M193.094 62.8384C191.619 60.6568 162.585 59.9263 135.76 59.5815C102.094 59.1482 61.7636 60.5583 60.4887 60.6502C58.1965 60.8143 55.7928 61.1115 55.8617 65.7324C55.9372 70.8113 58.9907 164.973 59.3172 165.957C59.6454 166.94 194.144 167.524 195.617 167.524C197.091 167.524 198.336 167.733 198.384 165.371C198.461 161.551 196.333 137.231 195.161 111.259C194.067 86.9887 194.395 64.7639 193.094 62.8384Z" fill="#C0AB8D"/>
</g>
<g filter="url(#filter5_g_4570_38000)">
<path d="M132.61 57.3989C99.6 57.0873 61.6482 58.4134 60.3342 58.5082L60.3348 58.5088C59.2869 58.5838 57.451 58.6929 55.9852 59.8145C54.3434 61.0707 53.6756 63.1148 53.7151 65.7634C53.7532 68.329 54.5366 93.1697 55.3497 117.452C55.7565 129.602 56.1716 141.626 56.5051 150.674C56.6718 155.198 56.8181 158.982 56.9333 161.667C56.9908 163.009 57.0409 164.083 57.0818 164.84C57.1022 165.217 57.1212 165.527 57.1382 165.755C57.1465 165.867 57.1551 165.976 57.1651 166.07C57.17 166.115 57.1771 166.175 57.1867 166.238C57.1897 166.258 57.2141 166.434 57.2801 166.633L57.2807 166.636C57.4909 167.265 57.9191 167.6 58.0797 167.714C58.2749 167.854 58.4518 167.932 58.5421 167.968C58.7287 168.044 58.8943 168.082 58.9728 168.099C59.1506 168.138 59.3383 168.162 59.4909 168.18C59.8151 168.216 60.2497 168.249 60.7613 168.279C61.7961 168.339 63.2831 168.396 65.1438 168.451C68.8718 168.562 74.171 168.665 80.5125 168.762C93.1989 168.955 110.094 169.12 127.02 169.255C160.871 169.524 194.871 169.67 195.617 169.67C195.872 169.67 196.38 169.684 196.779 169.663C197.211 169.64 197.841 169.57 198.472 169.264C199.954 168.545 200.439 167.108 200.519 165.695L200.53 165.413C200.571 163.377 200.044 156.175 199.382 146.475C198.714 136.675 197.89 124.122 197.306 111.161C196.76 99.0553 196.569 87.4685 196.351 78.616C196.242 74.2034 196.127 70.4487 195.955 67.6699C195.869 66.2844 195.766 65.0988 195.637 64.1774C195.573 63.7184 195.496 63.2852 195.4 62.9064C195.319 62.5848 195.173 62.0805 194.872 61.6359V61.6353C194.404 60.9429 193.685 60.6134 193.328 60.4644C192.872 60.2739 192.342 60.1217 191.793 59.9942C190.686 59.737 189.231 59.5175 187.528 59.3239C184.106 58.935 179.443 58.6256 174.032 58.3758C163.198 57.8756 149.202 57.6066 135.787 57.4342L132.61 57.3989ZM86.0235 62.0642C100.463 61.7546 118.935 61.5108 135.732 61.727C149.142 61.8993 163.076 62.1683 173.834 62.665C179.219 62.9136 183.767 63.2174 187.043 63.5898C188.688 63.7768 189.953 63.9745 190.821 64.1762C191.016 64.2215 191.178 64.2645 191.311 64.3031C191.335 64.4348 191.36 64.5908 191.386 64.7733C191.492 65.5307 191.585 66.5873 191.669 67.9353C191.835 70.6236 191.95 74.3033 192.059 78.7214C192.276 87.5302 192.468 99.1907 193.017 111.355C193.604 124.367 194.43 136.96 195.099 146.767C195.775 156.675 196.273 163.542 196.237 165.326V165.327C196.237 165.345 196.236 165.363 196.235 165.381C196.215 165.381 196.193 165.382 196.171 165.381C196.089 165.381 196.008 165.38 195.913 165.379C195.822 165.378 195.721 165.377 195.617 165.377C194.89 165.377 160.904 165.23 127.055 164.961C110.131 164.827 93.248 164.662 80.5778 164.469C74.2411 164.373 68.9673 164.269 65.2714 164.159C63.6192 164.11 62.2962 164.059 61.3398 164.009C61.3065 163.339 61.2657 162.491 61.2225 161.483C61.1078 158.811 60.962 155.038 60.7954 150.516C60.4622 141.475 60.0474 129.456 59.6406 117.308C58.8264 92.9939 58.0452 68.2144 58.0078 65.6999V65.6993C57.9785 63.728 58.4783 63.3131 58.5942 63.2244C58.8858 63.0013 59.3977 62.8799 60.6421 62.7908H60.6433C60.6451 62.7906 60.6591 62.7895 60.6912 62.7878C60.7236 62.786 60.7667 62.7837 60.8212 62.7812C60.9302 62.7761 61.0773 62.7701 61.262 62.7626C61.631 62.7475 62.1425 62.7277 62.7857 62.7045C64.0719 62.6582 65.8795 62.5975 68.1195 62.5284C72.5996 62.3902 78.8058 62.219 86.0235 62.0642Z" fill="white"/>
</g>
<g filter="url(#filter6_g_4570_38000)">
<path d="M59.1165 178.193C57.129 173.052 48.1559 151.394 45.5301 145.488C42.9043 139.582 35.9006 113.55 35.6817 112.017C35.4629 110.486 35.5616 110.365 36.5883 110.36C37.6149 110.355 117.307 109.958 122.126 110.047C148.071 110.531 173.742 111.22 174.831 111.458C175.948 111.703 191.719 178.372 197.061 179.599C197.703 179.747 198.131 179.41 198.386 178.76" fill="#14343B"/>
</g>
<g filter="url(#filter7_g_4570_38000)">
<path d="M122.166 107.9C117.313 107.81 37.5743 108.207 36.578 108.212C36.3423 108.213 35.9072 108.215 35.4825 108.317C34.96 108.443 34.246 108.769 33.7995 109.56C33.4401 110.196 33.433 110.845 33.4407 111.164C33.4473 111.44 33.4791 111.738 33.5173 112.031L33.5569 112.32C33.604 112.65 33.774 113.358 33.978 114.173C34.1989 115.057 34.503 116.233 34.8686 117.613C35.6001 120.373 36.5817 123.967 37.6382 127.697C39.7269 135.072 42.1791 143.233 43.5691 146.359C46.1802 152.232 55.1395 173.857 57.1145 178.966C57.542 180.072 58.7849 180.622 59.8907 180.194C60.9964 179.767 61.5464 178.524 61.1192 177.418C59.1192 172.245 50.1322 150.554 47.4917 144.615C46.2558 141.835 43.8934 134.027 41.7692 126.527C40.7192 122.82 39.744 119.249 39.0188 116.512C38.656 115.144 38.3574 113.988 38.1431 113.132C38.0841 112.896 38.0341 112.684 37.9892 112.498C48.7237 112.445 117.639 112.111 122.086 112.193C135.053 112.434 147.952 112.728 157.742 112.99C162.638 113.121 166.753 113.244 169.709 113.35C171.188 113.403 172.369 113.451 173.211 113.492C173.263 113.495 173.314 113.498 173.363 113.5C173.494 113.902 173.65 114.408 173.83 115.016C174.371 116.839 175.094 119.447 175.954 122.6C177.669 128.89 179.917 137.305 182.296 145.742C184.673 154.174 187.195 162.684 189.465 169.176C190.597 172.414 191.688 175.213 192.688 177.267C193.185 178.287 193.695 179.199 194.215 179.906C194.476 180.26 194.777 180.615 195.123 180.915C195.455 181.204 195.944 181.544 196.581 181.69L196.582 181.69C197.394 181.877 198.285 181.784 199.065 181.26C199.777 180.783 200.166 180.099 200.384 179.544C200.817 178.44 200.274 177.194 199.171 176.761C198.553 176.519 197.891 176.582 197.352 176.878C197.118 176.498 196.848 176.005 196.548 175.388C195.659 173.561 194.633 170.948 193.518 167.759C191.294 161.399 188.802 152.996 186.428 144.577C184.057 136.163 181.819 127.789 180.096 121.471C179.237 118.32 178.502 115.67 177.946 113.795C177.669 112.863 177.427 112.089 177.229 111.531C177.133 111.261 177.029 110.987 176.921 110.757C176.87 110.65 176.785 110.479 176.665 110.303C176.606 110.217 176.498 110.069 176.337 109.917C176.204 109.791 175.852 109.484 175.291 109.361L175.29 109.36C175.039 109.305 174.702 109.281 174.499 109.266C174.222 109.246 173.859 109.225 173.424 109.204C172.553 109.16 171.348 109.112 169.862 109.059C166.887 108.953 162.758 108.829 157.857 108.698C148.053 108.435 135.144 108.142 122.166 107.9H122.166Z" fill="white"/>
</g>
<path d="M125.376 21.0663C125.805 21.2999 127.537 29.3155 127.785 30.5031C127.862 30.8749 127.813 30.9845 127.904 31.4903C128.103 32.5122 129.067 36.6632 128.811 37.1891C128.635 37.5475 126.974 37.739 126.917 37.6299C126.804 37.4175 126.09 34.8863 125.948 34.3666C125.272 31.8895 123.413 25.1786 123.231 23.0043C123.118 21.618 124.518 20.5935 125.375 21.0607L125.376 21.0663Z" fill="#C0AB8D"/>
<path d="M107.673 28.6671L118.116 39.2965C119.13 40.232 117.757 41.7323 116.826 41.3536L105.931 30.4752C105.087 29.3782 106.403 27.9542 107.679 28.6612L107.673 28.6671Z" fill="#C0AB8D"/>
<path d="M141.229 34.8829C141.179 34.9813 141.29 36.6205 140.502 36.8682C140.27 36.9378 139.108 36.741 139.022 36.6223C138.535 35.9541 143.671 21.296 144.467 21.0759C145.472 20.7988 146.122 21.9295 145.992 22.9929C145.639 25.917 142.547 32.2344 141.235 34.8826L141.229 34.8829Z" fill="#C0AB8D"/>
<path d="M163.103 30.1025C162.932 30.8313 152.979 38.3989 151.876 40.0016C147.666 40.5762 153.12 35.7848 154.267 34.6569C155.324 33.6186 161.495 27.8309 162.508 28.3565C162.983 28.6042 163.224 29.5732 163.097 30.1028L163.103 30.1025Z" fill="#C0AB8D"/>
<path d="M95.2664 43.2056C95.3342 43.2129 95.6845 43.934 96.3848 43.9104C96.5921 43.9041 96.3293 43.1442 96.75 43.3333C96.7846 43.3481 96.7186 43.8574 97.14 43.9623C98.9393 44.4031 107.82 46.1645 108.427 47.4437C108.671 47.9632 107.968 49.4023 107.144 49.2253C105.469 48.0246 93.6644 45.8874 93.4727 44.8032C93.3395 44.0527 94.4349 43.0964 95.2604 43.2003L95.2664 43.2056Z" fill="#C0AB8D"/>
<path d="M172.676 43.1748C172.259 43.8279 161.389 46.7813 160.056 48.3804C158.966 48.7579 158.456 46.8217 158.784 46.2804C159.24 45.5351 169.644 42.2773 171.154 41.4037C172.115 40.6517 172.876 42.8487 172.671 43.1751L172.676 43.1748Z" fill="#C0AB8D"/>
<g filter="url(#filter8_g_4570_38000)">
<path d="M170.946 247.804C167.272 235.864 165.714 211.838 164.731 188.709C163.747 165.581 164.431 145.378 162.248 132.336C160.596 122.46 151.245 122.856 149.688 135.449C149.031 140.766 147.548 165.133 147.548 165.133C132.189 170.571 126.623 183.591 123.651 200.289" fill="#14343B"/>
</g>
<g filter="url(#filter9_g_4570_38000)">
<path d="M155.593 123.347C157.741 123.003 159.788 123.8 161.34 125.381C162.862 126.933 163.902 129.208 164.366 131.981C165.486 138.673 165.861 147.127 166.086 156.69C166.312 166.309 166.385 177.08 166.876 188.618C167.367 200.172 168.001 211.917 168.967 222.252C169.938 232.63 171.231 241.43 172.999 247.172C173.347 248.305 172.712 249.507 171.579 249.856C170.445 250.204 169.244 249.569 168.895 248.436C166.988 242.238 165.665 233.055 164.692 222.652C163.715 212.207 163.078 200.374 162.586 188.8C162.094 177.211 162.018 166.316 161.794 156.791C161.569 147.21 161.194 139.041 160.131 132.69C159.769 130.525 159.02 129.146 158.276 128.388C157.561 127.66 156.863 127.491 156.272 127.586C155.011 127.788 152.563 129.688 151.818 135.712C151.499 138.296 150.969 145.641 150.514 152.429C150.288 155.803 150.082 159.012 149.933 161.378C149.858 162.56 149.798 163.532 149.756 164.208C149.735 164.546 149.719 164.81 149.708 164.99C149.703 165.079 149.698 165.148 149.696 165.194C149.694 165.217 149.693 165.234 149.693 165.246C149.692 165.252 149.692 165.256 149.691 165.259V165.263C149.639 166.123 149.078 166.869 148.265 167.157C134.051 172.188 128.703 184.159 125.765 200.665C125.558 201.832 124.443 202.61 123.276 202.403C122.108 202.195 121.33 201.08 121.538 199.913C124.461 183.488 130.012 169.731 145.491 163.613C145.532 162.964 145.585 162.111 145.648 161.108C145.798 158.738 146.003 155.524 146.23 152.142C146.681 145.417 147.219 137.919 147.557 135.185L147.64 134.575C148.559 128.333 151.508 124.001 155.593 123.347Z" fill="#C6D5D1"/>
</g>
<defs>
<filter id="filter0_g_4570_38000" x="80.7251" y="176.252" width="32.2623" height="81.5948" filterUnits="userSpaceOnUse" color-interpolation-filters="sRGB">
<feFlood flood-opacity="0" result="BackgroundImageFix"/>
<feBlend mode="normal" in="SourceGraphic" in2="BackgroundImageFix" result="shape"/>
<feTurbulence type="fractalNoise" baseFrequency="0.1955682635307312 0.1955682635307312" numOctaves="3" seed="5163" />
<feDisplacementMap in="shape" scale="0.85652875900268555" xChannelSelector="R" yChannelSelector="G" result="displacedImage" width="100%" height="100%" />
<feMerge result="effect1_texture_4570_38000">
<feMergeNode in="displacedImage"/>
</feMerge>
</filter>
<filter id="filter1_g_4570_38000" x="58.7415" y="88.3338" width="182.829" height="93.1458" filterUnits="userSpaceOnUse" color-interpolation-filters="sRGB">
<feFlood flood-opacity="0" result="BackgroundImageFix"/>
<feBlend mode="normal" in="SourceGraphic" in2="BackgroundImageFix" result="shape"/>
<feTurbulence type="fractalNoise" baseFrequency="0.1617693156003952 0.1617693156003952" numOctaves="3" seed="5163" />
<feDisplacementMap in="shape" scale="1.0354857444763184" xChannelSelector="R" yChannelSelector="G" result="displacedImage" width="100%" height="100%" />
<feMerge result="effect1_texture_4570_38000">
<feMergeNode in="displacedImage"/>
</feMerge>
</filter>
<filter id="filter2_g_4570_38000" x="56.5951" y="86.1873" width="187.123" height="97.4378" filterUnits="userSpaceOnUse" color-interpolation-filters="sRGB">
<feFlood flood-opacity="0" result="BackgroundImageFix"/>
<feBlend mode="normal" in="SourceGraphic" in2="BackgroundImageFix" result="shape"/>
<feTurbulence type="fractalNoise" baseFrequency="0.1617693156003952 0.1617693156003952" numOctaves="3" seed="5163" />
<feDisplacementMap in="shape" scale="1.0354857444763184" xChannelSelector="R" yChannelSelector="G" result="displacedImage" width="100%" height="100%" />
<feMerge result="effect1_texture_4570_38000">
<feMergeNode in="displacedImage"/>
</feMerge>
</filter>
<filter id="filter3_g_4570_38000" x="57.2324" y="52.8764" width="144.453" height="113.818" filterUnits="userSpaceOnUse" color-interpolation-filters="sRGB">
<feFlood flood-opacity="0" result="BackgroundImageFix"/>
<feBlend mode="normal" in="SourceGraphic" in2="BackgroundImageFix" result="shape"/>
<feTurbulence type="fractalNoise" baseFrequency="0.19781246781349182 0.19781246781349182" numOctaves="3" seed="5163" />
<feDisplacementMap in="shape" scale="0.84681135416030884" xChannelSelector="R" yChannelSelector="G" result="displacedImage" width="100%" height="100%" />
<feMerge result="effect1_texture_4570_38000">
<feMergeNode in="displacedImage"/>
</feMerge>
</filter>
<filter id="filter4_g_4570_38000" x="55.3426" y="58.9813" width="143.561" height="109.066" filterUnits="userSpaceOnUse" color-interpolation-filters="sRGB">
<feFlood flood-opacity="0" result="BackgroundImageFix"/>
<feBlend mode="normal" in="SourceGraphic" in2="BackgroundImageFix" result="shape"/>
<feTurbulence type="fractalNoise" baseFrequency="0.1617693156003952 0.1617693156003952" numOctaves="3" seed="5163" />
<feDisplacementMap in="shape" scale="1.0354857444763184" xChannelSelector="R" yChannelSelector="G" result="displacedImage" width="100%" height="100%" />
<feMerge result="effect1_texture_4570_38000">
<feMergeNode in="displacedImage"/>
</feMerge>
</filter>
<filter id="filter5_g_4570_38000" x="53.1956" y="56.8338" width="147.854" height="113.359" filterUnits="userSpaceOnUse" color-interpolation-filters="sRGB">
<feFlood flood-opacity="0" result="BackgroundImageFix"/>
<feBlend mode="normal" in="SourceGraphic" in2="BackgroundImageFix" result="shape"/>
<feTurbulence type="fractalNoise" baseFrequency="0.1617693156003952 0.1617693156003952" numOctaves="3" seed="5163" />
<feDisplacementMap in="shape" scale="1.0354857444763184" xChannelSelector="R" yChannelSelector="G" result="displacedImage" width="100%" height="100%" />
<feMerge result="effect1_texture_4570_38000">
<feMergeNode in="displacedImage"/>
</feMerge>
</filter>
<filter id="filter6_g_4570_38000" x="35.0682" y="109.516" width="163.835" height="70.6341" filterUnits="userSpaceOnUse" color-interpolation-filters="sRGB">
<feFlood flood-opacity="0" result="BackgroundImageFix"/>
<feBlend mode="normal" in="SourceGraphic" in2="BackgroundImageFix" result="shape"/>
<feTurbulence type="fractalNoise" baseFrequency="0.1617693156003952 0.1617693156003952" numOctaves="3" seed="5163" />
<feDisplacementMap in="shape" scale="1.0354857444763184" xChannelSelector="R" yChannelSelector="G" result="displacedImage" width="100%" height="100%" />
<feMerge result="effect1_texture_4570_38000">
<feMergeNode in="displacedImage"/>
</feMerge>
</filter>
<filter id="filter7_g_4570_38000" x="32.9212" y="107.369" width="168.13" height="74.9271" filterUnits="userSpaceOnUse" color-interpolation-filters="sRGB">
<feFlood flood-opacity="0" result="BackgroundImageFix"/>
<feBlend mode="normal" in="SourceGraphic" in2="BackgroundImageFix" result="shape"/>
<feTurbulence type="fractalNoise" baseFrequency="0.1617693156003952 0.1617693156003952" numOctaves="3" seed="5163" />
<feDisplacementMap in="shape" scale="1.0354857444763184" xChannelSelector="R" yChannelSelector="G" result="displacedImage" width="100%" height="100%" />
<feMerge result="effect1_texture_4570_38000">
<feMergeNode in="displacedImage"/>
</feMerge>
</filter>
<filter id="filter8_g_4570_38000" x="123.223" y="124.987" width="48.1515" height="123.245" filterUnits="userSpaceOnUse" color-interpolation-filters="sRGB">
<feFlood flood-opacity="0" result="BackgroundImageFix"/>
<feBlend mode="normal" in="SourceGraphic" in2="BackgroundImageFix" result="shape"/>
<feTurbulence type="fractalNoise" baseFrequency="0.1955682635307312 0.1955682635307312" numOctaves="3" seed="5163" />
<feDisplacementMap in="shape" scale="0.85652875900268555" xChannelSelector="R" yChannelSelector="G" result="displacedImage" width="100%" height="100%" />
<feMerge result="effect1_texture_4570_38000">
<feMergeNode in="displacedImage"/>
</feMerge>
</filter>
<filter id="filter9_g_4570_38000" x="121.076" y="122.839" width="52.4464" height="127.54" filterUnits="userSpaceOnUse" color-interpolation-filters="sRGB">
<feFlood flood-opacity="0" result="BackgroundImageFix"/>
<feBlend mode="normal" in="SourceGraphic" in2="BackgroundImageFix" result="shape"/>
<feTurbulence type="fractalNoise" baseFrequency="0.1955682635307312 0.1955682635307312" numOctaves="3" seed="5163" />
<feDisplacementMap in="shape" scale="0.85652875900268555" xChannelSelector="R" yChannelSelector="G" result="displacedImage" width="100%" height="100%" />
<feMerge result="effect1_texture_4570_38000">
<feMergeNode in="displacedImage"/>
</feMerge>
</filter>
</defs>
</svg>
