<svg width="276" height="277" viewBox="0 0 276 277" fill="none" xmlns="http://www.w3.org/2000/svg">
<rect width="276" height="276" transform="translate(0 0.607422)" fill="#C0AB8D"/>
<g filter="url(#filter0_g_4570_14351)">
<path fill-rule="evenodd" clip-rule="evenodd" d="M67.9669 67.8144C93.3379 58.0289 113.596 84.7934 131.224 105.343C145.593 122.093 158.506 142.412 149.159 162.464C137.611 187.24 113.182 206.382 86.198 201.941C57.2761 197.181 36.721 172.273 32.7842 143.31C28.6598 112.967 39.2728 78.8815 67.9669 67.8144Z" fill="#FFF9EE"/>
</g>
<g filter="url(#filter1_g_4570_14351)">
<path d="M168.216 224.495C168.216 230.692 163.461 235.786 157.373 236.384C157.244 244.687 150.421 251.378 142.021 251.378C133.621 251.378 126.798 244.687 126.669 236.384C120.581 235.786 115.827 230.692 115.827 224.495V207.17C115.827 206.18 116.635 205.378 117.633 205.378H166.409C167.407 205.378 168.216 206.18 168.216 207.17V224.495Z" fill="#C6D5D1"/>
</g>
<g filter="url(#filter2_g_4570_14351)">
<path d="M138.639 55.4902C176.744 55.4902 199.652 85.0613 199.652 115.546C199.652 130.912 193.287 142.554 186.535 151.949C183.219 156.564 179.624 160.873 176.827 164.56C173.93 168.377 171.784 171.652 170.793 174.697C167.448 184.97 167.991 196.774 168.023 206.13C168.121 206.37 168.177 206.632 168.177 206.907V227.352C168.177 234.44 163.208 240.366 156.563 241.841C155.553 251.024 147.771 258.168 138.319 258.168C128.867 258.168 121.085 251.024 120.074 241.841C113.43 240.366 108.462 234.439 108.462 227.352V206.907C108.462 206.627 108.518 206.36 108.619 206.116C108.702 193.459 109.794 184.862 106.484 174.697C105.493 171.652 103.348 168.377 100.451 164.56C97.6539 160.873 94.0595 156.564 90.7432 151.949C83.9916 142.554 77.625 130.913 77.625 115.546C77.6251 85.0614 100.533 55.4903 138.639 55.4902ZM124.294 242.195C125.429 248.916 131.275 254.036 138.319 254.036C145.363 254.036 151.211 248.917 152.346 242.195H124.294ZM112.594 227.352C112.594 233.268 117.389 238.064 123.306 238.064H153.333C159.249 238.064 164.045 233.268 164.045 227.352V225.584H112.594V227.352ZM112.594 221.452H164.045V208.973H145.704C145.692 208.973 145.679 208.975 145.666 208.975H130.333C130.321 208.975 130.308 208.973 130.296 208.973H112.594V221.452ZM138.639 59.9629C103.273 59.963 82.0978 87.2529 82.0977 115.546C82.0977 129.568 87.8698 140.288 94.375 149.341C97.6869 153.949 101.001 157.886 104.014 161.856C106.927 165.695 109.493 169.489 110.737 173.312C114.193 183.926 113.256 193.351 113.104 204.842H128.296C128.298 204.685 128.301 204.521 128.303 204.348C128.323 202.724 128.347 200.381 128.367 197.511C128.407 191.768 128.427 183.913 128.348 175.462C128.201 159.949 127.717 142.619 126.44 132.58C126.183 132.544 125.893 132.501 125.576 132.453C124.265 132.253 122.476 131.951 120.58 131.539C118.693 131.129 116.652 130.602 114.854 129.943C113.137 129.315 111.327 128.459 110.193 127.245C106.247 123.021 106.671 116.386 110.915 112.421C115.159 108.456 121.808 108.484 125.754 112.708C126.888 113.922 127.618 115.785 128.129 117.541C128.664 119.38 129.051 121.452 129.332 123.362C129.556 124.887 129.716 126.34 129.828 127.536H147.039C147.151 126.34 147.31 124.887 147.534 123.362C147.815 121.452 148.203 119.379 148.737 117.541C149.248 115.785 149.979 113.922 151.112 112.708C155.059 108.484 161.707 108.456 165.951 112.421C170.195 116.386 170.619 123.021 166.673 127.245C165.539 128.458 163.73 129.315 162.013 129.943C160.215 130.602 158.173 131.129 156.286 131.539C154.391 131.951 152.601 132.253 151.29 132.453C151.046 132.49 150.817 132.524 150.607 132.554C149.661 141.981 148.96 159.206 148.489 174.787C148.23 183.364 148.041 191.403 147.916 197.299C147.854 200.246 147.808 202.658 147.777 204.332C147.774 204.51 147.772 204.68 147.769 204.842H163.545C163.471 195.928 163.096 183.888 166.54 173.312C167.785 169.489 170.352 165.695 173.265 161.856C176.277 157.887 179.591 153.95 182.903 149.341C189.409 140.288 195.181 129.568 195.181 115.546C195.181 87.2528 174.005 59.9629 138.639 59.9629ZM130.487 131.668C131.844 142.002 132.33 159.828 132.478 175.424C132.558 183.903 132.538 191.782 132.498 197.539C132.478 200.418 132.453 202.768 132.433 204.398C132.431 204.553 132.43 204.701 132.428 204.842H143.637C143.64 204.658 143.643 204.463 143.646 204.257C143.677 202.579 143.724 200.164 143.786 197.212C143.911 191.308 144.101 183.255 144.36 174.662C144.836 158.918 145.551 141.222 146.544 131.668H130.487ZM122.734 115.528C120.442 113.074 116.417 112.934 113.735 115.439C111.054 117.945 110.92 121.97 113.212 124.424C113.638 124.88 114.645 125.468 116.274 126.064C117.823 126.632 119.661 127.112 121.456 127.502C123.037 127.845 124.551 128.109 125.748 128.298C125.641 127.091 125.48 125.563 125.245 123.962C124.978 122.144 124.623 120.278 124.162 118.694C123.677 117.028 123.16 115.984 122.734 115.528ZM163.131 115.439C160.449 112.934 156.424 113.074 154.132 115.528C153.706 115.984 153.189 117.029 152.704 118.694C152.243 120.278 151.888 122.144 151.621 123.962C151.386 125.563 151.225 127.091 151.118 128.298C152.315 128.109 153.829 127.845 155.41 127.502C157.206 127.112 159.043 126.632 160.592 126.064C162.221 125.468 163.228 124.879 163.654 124.424C165.946 121.97 165.813 117.945 163.131 115.439Z" fill="#14343B"/>
</g>
<g filter="url(#filter3_g_4570_14351)">
<path d="M207.557 132.594C207.837 131.525 208.905 130.871 209.975 131.094L210.079 131.118L230.842 136.549L230.944 136.578C231.986 136.908 232.598 138.001 232.318 139.07C232.038 140.139 230.97 140.793 229.9 140.57L229.797 140.546L209.033 135.115L208.931 135.086C207.889 134.756 207.278 133.663 207.557 132.594ZM227.336 80.0802C228.399 79.6675 229.596 80.1948 230.009 81.2581C230.422 82.3215 229.894 83.5182 228.831 83.931L207.428 92.2365C206.365 92.6492 205.168 92.1219 204.755 91.0586C204.343 89.9951 204.87 88.7985 205.933 88.3857L227.336 80.0802ZM191.605 35.0946C192.284 34.1785 193.578 33.9867 194.494 34.666C195.411 35.3455 195.602 36.6391 194.923 37.5554L181.187 56.0831C180.507 56.9993 179.214 57.1911 178.298 56.5118C177.381 55.8323 177.19 54.5387 177.869 53.6224L191.605 35.0946ZM136.573 43.3528V20.6722C136.573 19.5315 137.498 18.6064 138.639 18.6064C139.78 18.6064 140.705 19.5315 140.705 20.6722V43.3528C140.705 44.4936 139.78 45.4186 138.639 45.4186C137.498 45.4186 136.573 44.4936 136.573 43.3528Z" fill="#14343B"/>
</g>
<g filter="url(#filter4_g_4570_14351)">
<path d="M68.7621 132.593C68.4824 131.524 67.4143 130.871 66.3444 131.093L66.2408 131.118L45.477 136.548L45.3753 136.577C44.3332 136.907 43.7217 138 44.0014 139.069C44.2811 140.138 45.3492 140.792 46.4191 140.569L46.5226 140.545L67.2865 135.114L67.3882 135.085C68.4303 134.755 69.0417 133.662 68.7621 132.593ZM48.9834 80.0794C47.9199 79.6667 46.7233 80.194 46.3105 81.2574C45.8978 82.3208 46.4251 83.5174 47.4885 83.9302L68.8912 92.2358C69.9547 92.6484 71.1513 92.1212 71.5641 91.0578C71.9768 89.9944 71.4495 88.7978 70.3861 88.385L48.9834 80.0794ZM84.7143 35.0939C84.0349 34.1777 82.7413 33.9859 81.825 34.6653C80.9088 35.3447 80.717 36.6383 81.3964 37.5546L95.1325 56.0824C95.8119 56.9986 97.1055 57.1904 98.0218 56.511C98.938 55.8316 99.1298 54.538 98.4505 53.6217L84.7143 35.0939Z" fill="#14343B"/>
</g>
<defs>
<filter id="filter0_g_4570_14351" x="31.5285" y="65.3337" width="121.201" height="137.649" filterUnits="userSpaceOnUse" color-interpolation-filters="sRGB">
<feFlood flood-opacity="0" result="BackgroundImageFix"/>
<feBlend mode="normal" in="SourceGraphic" in2="BackgroundImageFix" result="shape"/>
<feTurbulence type="fractalNoise" baseFrequency="0.21004088222980499 0.21004088222980499" numOctaves="3" seed="5163" />
<feDisplacementMap in="shape" scale="0.79751056432723999" xChannelSelector="R" yChannelSelector="G" result="displacedImage" width="100%" height="100%" />
<feMerge result="effect1_texture_4570_14351">
<feMergeNode in="displacedImage"/>
</feMerge>
</filter>
<filter id="filter1_g_4570_14351" x="115.287" y="204.839" width="53.4673" height="47.0786" filterUnits="userSpaceOnUse" color-interpolation-filters="sRGB">
<feFlood flood-opacity="0" result="BackgroundImageFix"/>
<feBlend mode="normal" in="SourceGraphic" in2="BackgroundImageFix" result="shape"/>
<feTurbulence type="fractalNoise" baseFrequency="0.15529854595661163 0.15529854595661163" numOctaves="3" seed="5163" />
<feDisplacementMap in="shape" scale="1.0786310434341431" xChannelSelector="R" yChannelSelector="G" result="displacedImage" width="100%" height="100%" />
<feMerge result="effect1_texture_4570_14351">
<feMergeNode in="displacedImage"/>
</feMerge>
</filter>
<filter id="filter2_g_4570_14351" x="77.2567" y="55.1219" width="122.764" height="203.414" filterUnits="userSpaceOnUse" color-interpolation-filters="sRGB">
<feFlood flood-opacity="0" result="BackgroundImageFix"/>
<feBlend mode="normal" in="SourceGraphic" in2="BackgroundImageFix" result="shape"/>
<feTurbulence type="fractalNoise" baseFrequency="0.22738370299339294 0.22738370299339294" numOctaves="3" seed="5163" />
<feDisplacementMap in="shape" scale="0.73668348789215088" xChannelSelector="R" yChannelSelector="G" result="displacedImage" width="100%" height="100%" />
<feMerge result="effect1_texture_4570_14351">
<feMergeNode in="displacedImage"/>
</feMerge>
</filter>
<filter id="filter3_g_4570_14351" x="136.205" y="18.2381" width="96.5492" height="122.744" filterUnits="userSpaceOnUse" color-interpolation-filters="sRGB">
<feFlood flood-opacity="0" result="BackgroundImageFix"/>
<feBlend mode="normal" in="SourceGraphic" in2="BackgroundImageFix" result="shape"/>
<feTurbulence type="fractalNoise" baseFrequency="0.22738370299339294 0.22738370299339294" numOctaves="3" seed="5163" />
<feDisplacementMap in="shape" scale="0.73668348789215088" xChannelSelector="R" yChannelSelector="G" result="displacedImage" width="100%" height="100%" />
<feMerge result="effect1_texture_4570_14351">
<feMergeNode in="displacedImage"/>
</feMerge>
</filter>
<filter id="filter4_g_4570_14351" x="43.5653" y="33.8904" width="55.66" height="107.09" filterUnits="userSpaceOnUse" color-interpolation-filters="sRGB">
<feFlood flood-opacity="0" result="BackgroundImageFix"/>
<feBlend mode="normal" in="SourceGraphic" in2="BackgroundImageFix" result="shape"/>
<feTurbulence type="fractalNoise" baseFrequency="0.22738370299339294 0.22738370299339294" numOctaves="3" seed="5163" />
<feDisplacementMap in="shape" scale="0.73668348789215088" xChannelSelector="R" yChannelSelector="G" result="displacedImage" width="100%" height="100%" />
<feMerge result="effect1_texture_4570_14351">
<feMergeNode in="displacedImage"/>
</feMerge>
</filter>
</defs>
</svg>
