<svg width="276" height="277" viewBox="0 0 276 277" fill="none" xmlns="http://www.w3.org/2000/svg">
<rect width="276" height="276.003" transform="translate(0 0.606445)" fill="#FFF9EE"/>
<g filter="url(#filter0_g_4570_18890)">
<path d="M160.501 124.282C174.4 130.805 183.688 124.771 187.222 118.744C191.226 111.917 197.016 95.4516 182.095 87.8954C189.002 81.4158 188.989 67.7183 185.519 60.7884C179.028 47.8246 164.997 46.7618 159.313 46.6521C152.891 46.5287 144.363 49.3239 139.776 53.822C141.428 44.9013 137.676 38.312 131.959 33.5237C129.813 31.7272 127.219 30.5319 124.545 29.7022C116.109 27.0852 106.61 28.1 98.9193 32.4449C91.2284 36.7898 85.4528 44.3985 83.3409 52.974C80.9434 46.7915 74.4684 43.7608 67.1135 43.8979C60.4831 44.0214 51.2997 46.0327 45.4555 55.2482C39.3599 64.8636 41.1724 79.921 47.4576 84.0534C35.8516 85.6647 27.5984 99.1153 27.6739 113.126C27.7721 131.104 44.299 140.235 54.2503 140.914C67.774 141.835 74.9804 135.927 79.2818 128.837C81.5011 141.058 92.8991 144.237 95.3264 145.03C100.254 146.635 107.081 146.093 111.977 144.011C118.289 141.323 122.799 136.83 123.521 130.334C130.494 136.869 141.721 140.738 150.132 136.199C154.874 133.641 158.518 129.285 160.499 124.282H160.501Z" fill="#C0AB8D"/>
</g>
<g filter="url(#filter1_g_4570_18890)">
<path d="M85.5791 61.581C93.9137 59.8536 99.2499 63.9645 101.108 67.9469L101.109 67.9475C103.511 73.0997 104.223 78.6069 100.557 83.8563C97.0576 88.8682 89.9171 91.7948 83.5994 90.0131L83.2993 89.9245C79.9716 88.9032 77.5569 86.6098 76.0426 84.1002C74.5479 81.6231 73.8164 78.7494 74.0379 76.3143L74.0386 76.3124C74.2622 73.8731 74.8811 70.6996 76.5773 67.8714C78.3041 64.9923 81.1117 62.5458 85.4625 61.611C85.5011 61.6008 85.5396 61.5892 85.5791 61.581ZM97.0554 69.8368C96.0752 67.7379 92.8107 64.6764 86.5562 65.9454C86.5331 65.9509 86.5103 65.9586 86.4869 65.9635C83.4098 66.6013 81.5763 68.2313 80.4125 70.1718C79.2027 72.1889 78.6855 74.6103 78.4921 76.7211C78.371 78.0574 78.7854 79.9898 79.8716 81.7898C80.9385 83.558 82.5406 85.0138 84.6114 85.6494H84.6121C89.0121 87.0007 94.3645 84.9138 96.8907 81.2963C99.3066 77.8366 99.0747 74.1692 97.0554 69.8374V69.8368Z" fill="#C6D5D1"/>
</g>
<g filter="url(#filter2_g_4570_18890)">
<path d="M94.7318 102.612C97.2054 102.099 98.6624 103.314 99.1427 104.343C99.8899 105.946 100.05 107.496 99.0217 108.968C97.9938 110.44 95.8532 111.29 94.0295 110.73C92.2046 110.17 91.314 108.195 91.43 106.92C91.5709 105.382 92.1983 103.138 94.7318 102.613V102.612Z" fill="#C6D5D1"/>
</g>
<g filter="url(#filter3_g_4570_18890)">
<path d="M59.7285 92.5254C60.6145 91.7559 61.6255 91.8634 62.1335 92.0047C62.5717 92.1266 62.9324 92.3472 63.0261 92.4031L66.3848 94.3731C67.9713 95.3024 69.8968 96.4279 71.776 97.5216C73.6557 98.6157 75.4849 99.6754 76.8816 100.474C77.5809 100.874 78.1649 101.204 78.59 101.44C78.8037 101.558 78.9676 101.647 79.0813 101.706C79.1321 101.733 79.1636 101.749 79.1794 101.757C79.7651 102.005 80.2203 102.491 80.4258 103.098C80.6481 103.755 80.5531 104.479 80.1684 105.056L80.1669 105.058C79.93 105.413 79.5968 105.692 79.2083 105.863L79.0382 105.93L79.0353 105.932C79.0332 105.932 79.0303 105.933 79.0264 105.935C79.0184 105.938 79.0062 105.941 78.9907 105.947C78.9596 105.958 78.9138 105.974 78.8541 105.995C78.7341 106.036 78.5579 106.096 78.3341 106.174C77.8864 106.328 77.2464 106.549 76.4787 106.813C74.9438 107.34 72.8953 108.041 70.8429 108.735C68.7929 109.428 66.7291 110.117 65.1681 110.618C64.3913 110.867 63.7194 111.077 63.2303 111.218C62.9928 111.286 62.7598 111.35 62.5672 111.393C62.4838 111.412 62.3322 111.444 62.1647 111.462C62.0988 111.468 61.8984 111.488 61.6509 111.461C61.5334 111.448 61.2675 111.411 60.9613 111.272C60.655 111.133 60.0631 110.774 59.7796 110C59.7269 109.857 59.7009 109.738 59.6926 109.7C59.6807 109.646 59.6732 109.6 59.6685 109.572C59.6592 109.516 59.6523 109.466 59.6485 109.434C59.6405 109.367 59.6341 109.294 59.6283 109.228C59.6163 109.092 59.6027 108.915 59.5885 108.71C59.5598 108.296 59.5243 107.724 59.4848 107.054C59.4055 105.711 59.3085 103.942 59.214 102.172C59.0263 98.6557 58.8453 95.0619 58.838 94.8257L58.8374 94.8137C58.8327 94.6288 58.8374 94.3494 58.8928 94.0447C58.9261 93.8611 59.062 93.1117 59.7183 92.5346C59.7216 92.5317 59.7251 92.5283 59.7285 92.5254ZM63.6798 101.933C63.7634 103.5 63.8492 105.06 63.9222 106.32C65.4352 105.833 67.4195 105.171 69.4109 104.498C70.5964 104.098 71.7812 103.694 72.8661 103.323C71.829 102.724 70.6851 102.062 69.5262 101.387C67.3741 100.135 65.1627 98.8397 63.4662 97.8455C63.5286 99.0609 63.6032 100.499 63.6798 101.933Z" fill="#C6D5D1"/>
</g>
<g filter="url(#filter4_g_4570_18890)">
<path d="M232.222 221.746C232.443 221.667 233.315 221.387 234.224 221.938C234.496 222.103 234.736 222.332 234.802 222.393C234.932 222.515 235.084 222.663 235.245 222.826C235.571 223.154 235.991 223.592 236.469 224.098C237.429 225.113 238.665 226.445 239.934 227.819C242.181 230.252 244.5 232.778 245.688 234.02L246.125 234.47L246.128 234.473C247.095 235.453 247.209 237.008 246.352 238.12C246.341 238.134 246.33 238.145 246.319 238.158C245.411 239.343 242.791 242.753 240.341 245.852C239.102 247.419 237.894 248.924 236.968 250.023C236.511 250.568 236.096 251.044 235.771 251.386C235.618 251.546 235.43 251.736 235.238 251.894C235.159 251.959 234.966 252.115 234.705 252.243C234.582 252.304 234.297 252.434 233.909 252.474C233.488 252.517 232.748 252.46 232.122 251.866C231.915 251.669 228.854 248.658 225.883 245.655C224.395 244.15 222.909 242.628 221.804 241.448C221.255 240.863 220.777 240.337 220.434 239.932C220.269 239.736 220.096 239.523 219.959 239.324C219.896 239.234 219.789 239.073 219.695 238.876C219.65 238.781 219.568 238.595 219.514 238.351C219.473 238.163 219.365 237.58 219.662 236.922L219.733 236.78C219.804 236.646 219.872 236.546 219.876 236.541C219.918 236.476 219.967 236.404 220.016 236.333C220.116 236.189 220.249 236.003 220.406 235.787C220.722 235.352 221.158 234.762 221.672 234.075C222.701 232.699 224.061 230.911 225.437 229.15C226.809 227.394 228.215 225.64 229.332 224.341C229.884 223.699 230.403 223.125 230.829 222.711C231.03 222.515 231.282 222.283 231.55 222.097C231.673 222.011 231.91 221.856 232.222 221.746ZM232.723 227.257C231.676 228.475 230.32 230.163 228.961 231.903C227.606 233.637 226.266 235.4 225.253 236.754C224.972 237.129 224.718 237.471 224.496 237.772C224.667 237.959 224.857 238.166 225.066 238.389C226.129 239.523 227.581 241.011 229.063 242.509C230.542 244.004 232.039 245.497 233.189 246.638C233.338 246.785 233.48 246.925 233.616 247.06C234.488 246.021 235.633 244.597 236.833 243.079C238.714 240.699 240.698 238.128 241.919 236.542C240.591 235.132 238.55 232.912 236.649 230.854C235.379 229.479 234.16 228.165 233.22 227.171C233.144 227.091 233.07 227.014 232.999 226.939C232.911 227.04 232.819 227.146 232.723 227.257Z" fill="#C6D5D1"/>
</g>
<g filter="url(#filter5_g_4570_18890)">
<path d="M217.271 254.193C216.673 254.151 207.597 252.37 207.165 252.406C206.732 252.442 204.839 262.509 204.888 262.795C204.937 263.082 215.463 265.134 215.727 265.173C215.99 265.212 217.272 254.193 217.272 254.193H217.271Z" fill="#C6D5D1"/>
</g>
<g filter="url(#filter6_g_4570_18890)">
<path d="M226.663 150.487C226.663 148.547 227.131 127.117 219.793 106.217C216.13 95.7836 210.569 85.6292 202.167 78.0969C193.812 70.6066 182.526 65.5973 167.143 65.5973C151.636 65.5973 140.477 69.6712 132.382 75.633C124.267 81.61 119.071 89.6046 115.714 97.6911C112.354 105.785 110.865 113.902 110.132 120.013C109.766 123.064 109.59 125.595 109.459 127.389C109.395 128.261 109.338 129.027 109.269 129.566C109.237 129.811 109.186 130.154 109.088 130.468C109.049 130.592 108.933 130.956 108.652 131.312C108.498 131.505 108.208 131.81 107.74 132.009C107.531 132.097 107.315 132.151 107.098 132.175C107.078 132.178 107.055 132.182 107.029 132.187C106.911 132.21 106.726 132.247 106.486 132.302C106.004 132.412 105.3 132.591 104.449 132.867C102.74 133.419 100.477 134.344 98.2297 135.823C93.8022 138.739 89.402 143.807 89.4019 152.786C89.4019 157.294 90.6242 160.592 92.3643 163.044C94.1211 165.52 96.4939 167.256 98.9553 168.471C101.42 169.689 103.912 170.353 105.805 170.711C106.746 170.888 107.526 170.987 108.063 171.042C108.33 171.069 108.537 171.085 108.671 171.094C108.738 171.099 108.787 171.101 108.816 171.103C108.831 171.104 108.841 171.104 108.846 171.104H108.847C110.02 171.147 110.96 172.091 110.999 173.264L113.413 245.659C113.454 246.893 112.486 247.927 111.252 247.968C110.018 248.009 108.984 247.042 108.943 245.808L106.595 175.367C106.118 175.302 105.573 175.218 104.975 175.105C102.818 174.698 99.9099 173.931 96.975 172.481C94.0368 171.03 91.0097 168.863 88.7169 165.632C86.4072 162.378 84.9297 158.163 84.9297 152.786C84.9298 141.998 90.3636 135.648 95.7702 132.088C98.4402 130.33 101.094 129.251 103.073 128.611C103.779 128.383 104.405 128.209 104.921 128.079C104.944 127.789 104.971 127.452 104.999 127.062C105.13 125.279 105.312 122.649 105.692 119.48C106.452 113.149 108.009 104.589 111.584 95.976C115.163 87.3559 120.793 78.6143 129.73 72.0318C138.688 65.4341 150.807 61.125 167.143 61.125C183.602 61.125 195.958 66.5238 205.152 74.7664C214.3 82.967 220.198 93.8705 224.013 104.736C231.631 126.434 231.135 148.566 231.135 150.487V173.576C231.135 174.6 230.438 175.493 229.445 175.744L214.872 179.413C214.894 179.742 214.917 180.109 214.939 180.512C215.039 182.416 215.124 185.128 215.062 188.378C214.939 194.864 214.235 203.563 211.88 212.302C209.528 221.028 205.488 229.947 198.59 236.702C191.635 243.512 181.926 247.969 168.59 247.969C167.355 247.969 166.354 246.968 166.354 245.733C166.354 244.498 167.355 243.497 168.59 243.497C180.824 243.497 189.389 239.452 195.461 233.506C201.589 227.506 205.33 219.418 207.561 211.138C209.79 202.87 210.472 194.562 210.591 188.293C210.65 185.166 210.568 182.562 210.473 180.747C210.425 179.84 210.374 179.13 210.335 178.652C210.315 178.413 210.299 178.231 210.287 178.111C210.282 178.052 210.278 178.007 210.275 177.979C210.273 177.965 210.272 177.955 210.272 177.949L210.271 177.943L210.259 177.736C210.244 176.71 210.936 175.793 211.949 175.538L226.663 171.832V150.487ZM106.488 127.749C106.495 127.79 106.54 128.067 106.831 129.93L106.49 127.749C106.489 127.749 106.489 127.749 106.488 127.749ZM107.359 127.778C107.349 127.775 107.339 127.773 107.329 127.771C107.339 127.773 107.349 127.775 107.359 127.778Z" fill="#14343B"/>
</g>
<defs>
<filter id="filter0_g_4570_18890" x="26.9798" y="27.5799" width="165.471" height="119.079" filterUnits="userSpaceOnUse" color-interpolation-filters="sRGB">
<feFlood flood-opacity="0" result="BackgroundImageFix"/>
<feBlend mode="normal" in="SourceGraphic" in2="BackgroundImageFix" result="shape"/>
<feTurbulence type="fractalNoise" baseFrequency="0.12076154351234436 0.12076154351234436" numOctaves="3" seed="5163" />
<feDisplacementMap in="shape" scale="1.3871122598648071" xChannelSelector="R" yChannelSelector="G" result="displacedImage" width="100%" height="100%" />
<feMerge result="effect1_texture_4570_18890">
<feMergeNode in="displacedImage"/>
</feMerge>
</filter>
<filter id="filter1_g_4570_18890" x="73.5529" y="60.7297" width="30.0021" height="30.2545" filterUnits="userSpaceOnUse" color-interpolation-filters="sRGB">
<feFlood flood-opacity="0" result="BackgroundImageFix"/>
<feBlend mode="normal" in="SourceGraphic" in2="BackgroundImageFix" result="shape"/>
<feTurbulence type="fractalNoise" baseFrequency="0.18774552643299103 0.18774552643299103" numOctaves="3" seed="5163" />
<feDisplacementMap in="shape" scale="0.89221745729446411" xChannelSelector="R" yChannelSelector="G" result="displacedImage" width="100%" height="100%" />
<feMerge result="effect1_texture_4570_18890">
<feMergeNode in="displacedImage"/>
</feMerge>
</filter>
<filter id="filter2_g_4570_18890" x="90.8072" y="101.877" width="9.5536" height="9.63856" filterUnits="userSpaceOnUse" color-interpolation-filters="sRGB">
<feFlood flood-opacity="0" result="BackgroundImageFix"/>
<feBlend mode="normal" in="SourceGraphic" in2="BackgroundImageFix" result="shape"/>
<feTurbulence type="fractalNoise" baseFrequency="0.13669003546237946 0.13669003546237946" numOctaves="3" seed="5163" />
<feDisplacementMap in="shape" scale="1.225472092628479" xChannelSelector="R" yChannelSelector="G" result="displacedImage" width="100%" height="100%" />
<feMerge result="effect1_texture_4570_18890">
<feMergeNode in="displacedImage"/>
</feMerge>
</filter>
<filter id="filter3_g_4570_18890" x="58.3898" y="91.4582" width="22.6002" height="20.4625" filterUnits="userSpaceOnUse" color-interpolation-filters="sRGB">
<feFlood flood-opacity="0" result="BackgroundImageFix"/>
<feBlend mode="normal" in="SourceGraphic" in2="BackgroundImageFix" result="shape"/>
<feTurbulence type="fractalNoise" baseFrequency="0.18774552643299103 0.18774552643299103" numOctaves="3" seed="5163" />
<feDisplacementMap in="shape" scale="0.89221745729446411" xChannelSelector="R" yChannelSelector="G" result="displacedImage" width="100%" height="100%" />
<feMerge result="effect1_texture_4570_18890">
<feMergeNode in="displacedImage"/>
</feMerge>
</filter>
<filter id="filter4_g_4570_18890" x="219.015" y="221.158" width="28.361" height="31.7721" filterUnits="userSpaceOnUse" color-interpolation-filters="sRGB">
<feFlood flood-opacity="0" result="BackgroundImageFix"/>
<feBlend mode="normal" in="SourceGraphic" in2="BackgroundImageFix" result="shape"/>
<feTurbulence type="fractalNoise" baseFrequency="0.18774552643299103 0.18774552643299103" numOctaves="3" seed="5163" />
<feDisplacementMap in="shape" scale="0.89221745729446411" xChannelSelector="R" yChannelSelector="G" result="displacedImage" width="100%" height="100%" />
<feMerge result="effect1_texture_4570_18890">
<feMergeNode in="displacedImage"/>
</feMerge>
</filter>
<filter id="filter5_g_4570_18890" x="204.274" y="251.793" width="13.6102" height="13.9931" filterUnits="userSpaceOnUse" color-interpolation-filters="sRGB">
<feFlood flood-opacity="0" result="BackgroundImageFix"/>
<feBlend mode="normal" in="SourceGraphic" in2="BackgroundImageFix" result="shape"/>
<feTurbulence type="fractalNoise" baseFrequency="0.13669003546237946 0.13669003546237946" numOctaves="3" seed="5163" />
<feDisplacementMap in="shape" scale="1.225472092628479" xChannelSelector="R" yChannelSelector="G" result="displacedImage" width="100%" height="100%" />
<feMerge result="effect1_texture_4570_18890">
<feMergeNode in="displacedImage"/>
</feMerge>
</filter>
<filter id="filter6_g_4570_18890" x="84.3904" y="60.5857" width="147.291" height="187.923" filterUnits="userSpaceOnUse" color-interpolation-filters="sRGB">
<feFlood flood-opacity="0" result="BackgroundImageFix"/>
<feBlend mode="normal" in="SourceGraphic" in2="BackgroundImageFix" result="shape"/>
<feTurbulence type="fractalNoise" baseFrequency="0.15529854595661163 0.15529854595661163" numOctaves="3" seed="5163" />
<feDisplacementMap in="shape" scale="1.0786310434341431" xChannelSelector="R" yChannelSelector="G" result="displacedImage" width="100%" height="100%" />
<feMerge result="effect1_texture_4570_18890">
<feMergeNode in="displacedImage"/>
</feMerge>
</filter>
</defs>
</svg>
